<svg width="88" height="88" viewBox="0 0 88 88" fill="none" xmlns="http://www.w3.org/2000/svg">
<rect width="88" height="88" rx="8" fill="#2B331B"/>
<path d="M41.614 62.704C39.0767 62.704 36.7007 62.22 34.486 61.252C32.2713 60.284 30.328 58.942 28.656 57.226C26.984 55.4953 25.6713 53.4933 24.718 51.22C23.7793 48.932 23.31 46.4827 23.31 43.872C23.31 41.2613 23.7793 38.8193 24.718 36.546C25.6713 34.258 26.984 32.256 28.656 30.54C30.328 28.8093 32.2713 27.46 34.486 26.492C36.7007 25.524 39.0767 25.04 41.614 25.04C44.1513 25.04 46.5273 25.524 48.742 26.492C50.9567 27.46 52.9 28.8093 54.572 30.54C56.244 32.256 57.5493 34.258 58.488 36.546C59.4413 38.8193 59.918 41.2613 59.918 43.872C59.918 46.4827 59.4413 48.932 58.488 51.22C57.5493 53.4933 56.244 55.4953 54.572 57.226C52.9 58.942 50.9567 60.284 48.742 61.252C46.5273 62.22 44.1513 62.704 41.614 62.704ZM41.592 55.84C43.1467 55.84 44.5693 55.5467 45.86 54.96C47.1507 54.3733 48.2727 53.5447 49.226 52.474C50.1793 51.4033 50.92 50.142 51.448 48.69C51.976 47.2233 52.24 45.6173 52.24 43.872C52.24 42.1267 51.976 40.528 51.448 39.076C50.92 37.6093 50.1793 36.3407 49.226 35.27C48.2727 34.1993 47.1507 33.3707 45.86 32.784C44.5693 32.1973 43.1467 31.904 41.592 31.904C40.0667 31.904 38.6513 32.1973 37.346 32.784C36.0553 33.3707 34.9333 34.1993 33.98 35.27C33.0267 36.3407 32.286 37.6093 31.758 39.076C31.2447 40.528 30.988 42.1267 30.988 43.872C30.988 45.6173 31.2447 47.2233 31.758 48.69C32.286 50.142 33.0267 51.4033 33.98 52.474C34.9333 53.5447 36.0553 54.3733 37.346 54.96C38.6513 55.5467 40.0667 55.84 41.592 55.84ZM66.463 62.24C65.311 62.24 64.415 61.8827 63.775 61.168C63.1457 60.4533 62.831 59.5787 62.831 58.544C62.831 57.5093 63.1884 56.688 63.903 56.08C64.6177 55.472 65.4657 55.168 66.447 55.168C67.4284 55.168 68.271 55.472 68.975 56.08C69.6897 56.6773 70.047 57.552 70.047 58.704C70.047 59.664 69.7377 60.496 69.119 61.2C68.5004 61.8933 67.615 62.24 66.463 62.24ZM66.367 55.984C65.631 55.984 65.007 56.2187 64.495 56.688C63.983 57.1467 63.727 57.8133 63.727 58.688C63.727 59.552 64.0097 60.2187 64.575 60.688C65.1404 61.1467 65.791 61.376 66.527 61.376C67.263 61.376 67.8924 61.12 68.415 60.608C68.9377 60.096 69.199 59.4347 69.199 58.624C69.199 57.8027 68.911 57.1573 68.335 56.688C67.7697 56.2187 67.1137 55.984 66.367 55.984Z" fill="white"/>
<path d="M34.486 61.252L34.8865 60.3357L34.486 61.252ZM28.656 57.226L27.9368 57.9208L27.9398 57.9239L28.656 57.226ZM24.718 51.22L23.7928 51.5996L23.7958 51.6067L24.718 51.22ZM24.718 36.546L23.7949 36.1614L23.7937 36.1643L24.718 36.546ZM28.656 30.54L29.3722 31.2379L29.3752 31.2348L28.656 30.54ZM54.572 30.54L53.8528 31.2348L53.8558 31.2379L54.572 30.54ZM58.488 36.546L57.5628 36.9256L57.5658 36.9327L58.488 36.546ZM58.488 51.22L57.5649 50.8354L57.5637 50.8384L58.488 51.22ZM54.572 57.226L55.2882 57.9239L55.2912 57.9208L54.572 57.226ZM48.742 61.252L48.3415 60.3357L48.742 61.252ZM45.86 54.96L45.4462 54.0496H45.4462L45.86 54.96ZM49.226 52.474L49.9728 53.139L49.226 52.474ZM51.448 48.69L52.3878 49.0317L52.3889 49.0287L51.448 48.69ZM51.448 39.076L50.5071 39.4147L50.5082 39.4177L51.448 39.076ZM49.226 35.27L49.9728 34.605L49.226 35.27ZM45.86 32.784L45.4462 33.6944V33.6944L45.86 32.784ZM37.346 32.784L36.9361 31.8719L36.9322 31.8736L37.346 32.784ZM33.98 35.27L34.7268 35.935L34.7268 35.935L33.98 35.27ZM31.758 39.076L30.8171 38.7373L30.8152 38.7427L31.758 39.076ZM31.758 48.69L30.8141 49.0204L30.8182 49.0317L31.758 48.69ZM37.346 54.96L36.9322 55.8704L36.9361 55.8721L37.346 54.96ZM41.614 61.704C39.2075 61.704 36.9686 61.2458 34.8865 60.3357L34.0855 62.1683C36.4327 63.1942 38.9458 63.704 41.614 63.704V61.704ZM34.8865 60.3357C32.7891 59.419 30.9533 58.1508 29.3722 56.5281L27.9398 57.9239C29.7027 59.7332 31.7535 61.149 34.0855 62.1683L34.8865 60.3357ZM29.3752 56.5312C27.7915 54.8919 26.5467 52.9951 25.6402 50.8333L23.7958 51.6067C24.7959 53.9916 26.1765 56.0987 27.9368 57.9208L29.3752 56.5312ZM25.6432 50.8404C24.7566 48.6795 24.31 46.3598 24.31 43.872H22.31C22.31 46.6055 22.802 49.1845 23.7928 51.5996L25.6432 50.8404ZM24.31 43.872C24.31 41.3841 24.7566 39.0726 25.6423 36.9276L23.7937 36.1643C22.802 38.566 22.31 41.1385 22.31 43.872H24.31ZM25.6411 36.9306C26.5476 34.755 27.7914 32.8603 29.3722 31.2379L27.9398 29.8421C26.1766 31.6517 24.7951 33.7609 23.7949 36.1614L25.6411 36.9306ZM29.3752 31.2348C30.956 29.5985 32.791 28.3242 34.8865 27.4083L34.0855 25.5757C31.7517 26.5958 29.7 28.0202 27.9368 29.8452L29.3752 31.2348ZM34.8865 27.4083C36.9686 26.4982 39.2075 26.04 41.614 26.04V24.04C38.9458 24.04 36.4327 24.5498 34.0855 25.5757L34.8865 27.4083ZM41.614 26.04C44.0205 26.04 46.2594 26.4982 48.3415 27.4083L49.1425 25.5757C46.7953 24.5498 44.2822 24.04 41.614 24.04V26.04ZM48.3415 27.4083C50.437 28.3242 52.272 29.5985 53.8528 31.2348L55.2912 29.8452C53.528 28.0202 51.4763 26.5958 49.1425 25.5757L48.3415 27.4083ZM53.8558 31.2379C55.4355 32.8592 56.6712 34.7522 57.5628 36.9256L59.4132 36.1664C58.4275 33.7638 57.0525 31.6528 55.2882 29.8421L53.8558 31.2379ZM57.5658 36.9327C58.4648 39.0765 58.918 41.3862 58.918 43.872H60.918C60.918 41.1365 60.4179 38.5622 59.4102 36.1593L57.5658 36.9327ZM58.918 43.872C58.918 46.3578 58.4648 48.6757 57.5649 50.8354L59.4111 51.6046C60.4179 49.1883 60.918 46.6075 60.918 43.872H58.918ZM57.5637 50.8384C56.672 52.9979 55.4354 54.8931 53.8528 56.5312L55.2912 57.9208C57.0526 56.0976 58.4267 53.9887 59.4123 51.6016L57.5637 50.8384ZM53.8558 56.5281C52.2747 58.1508 50.4389 59.419 48.3415 60.3357L49.1425 62.1683C51.4745 61.149 53.5253 59.7332 55.2882 57.9239L53.8558 56.5281ZM48.3415 60.3357C46.2594 61.2458 44.0205 61.704 41.614 61.704V63.704C44.2822 63.704 46.7953 63.1942 49.1425 62.1683L48.3415 60.3357ZM41.592 56.84C43.2755 56.84 44.8411 56.5216 46.2738 55.8704L45.4462 54.0496C44.2976 54.5717 43.0178 54.84 41.592 54.84V56.84ZM46.2738 55.8704C47.6928 55.2254 48.9279 54.3126 49.9728 53.139L48.4792 51.809C47.6175 52.7768 46.6085 53.5213 45.4462 54.0496L46.2738 55.8704ZM49.9728 53.139C51.0167 51.9666 51.8199 50.5934 52.3878 49.0317L50.5082 48.3483C50.0201 49.6906 49.3419 50.84 48.4792 51.809L49.9728 53.139ZM52.3889 49.0287C52.9604 47.4412 53.24 45.7191 53.24 43.872H51.24C51.24 45.5156 50.9916 47.0055 50.5071 48.3513L52.3889 49.0287ZM53.24 43.872C53.24 42.0251 52.9604 40.309 52.3878 38.7343L50.5082 39.4177C50.9916 40.747 51.24 42.2283 51.24 43.872H53.24ZM52.3889 38.7373C51.8214 37.161 51.0183 35.7791 49.9728 34.605L48.4792 35.935C49.3404 36.9023 50.0186 38.0576 50.5071 39.4147L52.3889 38.7373ZM49.9728 34.605C48.9279 33.4314 47.6928 32.5186 46.2738 31.8736L45.4462 33.6944C46.6085 34.2227 47.6175 34.9672 48.4792 35.935L49.9728 34.605ZM46.2738 31.8736C44.8411 31.2224 43.2755 30.904 41.592 30.904V32.904C43.0178 32.904 44.2976 33.1723 45.4462 33.6944L46.2738 31.8736ZM41.592 30.904C39.9348 30.904 38.3787 31.2235 36.9361 31.8719L37.7559 33.6961C38.924 33.1711 40.1985 32.904 41.592 32.904V30.904ZM36.9322 31.8736C35.5132 32.5186 34.2781 33.4314 33.2332 34.605L34.7268 35.935C35.5885 34.9672 36.5975 34.2227 37.7598 33.6944L36.9322 31.8736ZM33.2332 34.605C32.1877 35.7791 31.3846 37.161 30.8171 38.7373L32.6989 39.4147C33.1874 38.0576 33.8656 36.9023 34.7268 35.935L33.2332 34.605ZM30.8152 38.7427C30.2593 40.315 29.988 42.0281 29.988 43.872H31.988C31.988 42.2253 32.23 40.741 32.7008 39.4093L30.8152 38.7427ZM29.988 43.872C29.988 45.7161 30.2594 47.4353 30.8141 49.0203L32.7019 48.3596C32.23 47.0114 31.988 45.5186 31.988 43.872H29.988ZM30.8182 49.0317C31.3861 50.5934 32.1893 51.9666 33.2332 53.139L34.7268 51.809C33.8641 50.84 33.1859 49.6906 32.6978 48.3483L30.8182 49.0317ZM33.2332 53.139C34.2781 54.3126 35.5132 55.2254 36.9322 55.8704L37.7598 54.0496C36.5975 53.5213 35.5885 52.7768 34.7268 51.809L33.2332 53.139ZM36.9361 55.8721C38.3787 56.5205 39.9348 56.84 41.592 56.84V54.84C40.1985 54.84 38.924 54.5729 37.7559 54.0479L36.9361 55.8721ZM63.775 61.168L63.0245 61.8289L63.0301 61.8351L63.775 61.168ZM63.903 56.08L64.551 56.8417L63.903 56.08ZM68.975 56.08L68.3214 56.8368L68.3275 56.8421L68.3337 56.8473L68.975 56.08ZM69.119 61.2L69.8652 61.8658L69.8702 61.8601L69.119 61.2ZM64.495 56.688L65.1623 57.4329L65.1708 57.4252L64.495 56.688ZM64.575 60.688L63.9362 61.4575L63.945 61.4646L64.575 60.688ZM68.415 60.608L67.7153 59.8936L68.415 60.608ZM68.335 56.688L67.6963 57.4574L67.7034 57.4632L68.335 56.688ZM66.463 61.24C65.5332 61.24 64.9324 60.9614 64.52 60.5009L63.0301 61.8351C63.8977 62.8039 65.0889 63.24 66.463 63.24V61.24ZM64.5255 60.5071C64.0714 59.9915 63.831 59.3581 63.831 58.544H61.831C61.831 59.7992 62.22 60.9152 63.0245 61.8289L64.5255 60.5071ZM63.831 58.544C63.831 57.7686 64.0843 57.2387 64.551 56.8417L63.2551 55.3183C62.2924 56.1373 61.831 57.2501 61.831 58.544H63.831ZM64.551 56.8417C65.076 56.395 65.6913 56.168 66.447 56.168V54.168C65.2401 54.168 64.1594 54.549 63.2551 55.3183L64.551 56.8417ZM66.447 56.168C67.2027 56.168 67.8096 56.3948 68.3214 56.8368L69.6287 55.3232C68.7324 54.5492 67.654 54.168 66.447 54.168V56.168ZM68.3337 56.8473C68.7682 57.2104 69.047 57.7717 69.047 58.704H71.047C71.047 57.3323 70.6112 56.1442 69.6163 55.3127L68.3337 56.8473ZM69.047 58.704C69.047 59.4275 68.8219 60.0232 68.3679 60.5399L69.8702 61.8601C70.6535 60.9688 71.047 59.9005 71.047 58.704H69.047ZM68.3729 60.5342C67.988 60.9655 67.4038 61.24 66.463 61.24V63.24C67.8263 63.24 69.0127 62.8212 69.8652 61.8658L68.3729 60.5342ZM66.367 54.984C65.3972 54.984 64.5274 55.3017 63.8193 55.9508L65.1708 57.4252C65.4866 57.1356 65.8649 56.984 66.367 56.984V54.984ZM63.8278 55.9432C63.0493 56.6405 62.727 57.6118 62.727 58.688H64.727C64.727 58.0148 64.9167 57.6528 65.1623 57.4328L63.8278 55.9432ZM62.727 58.688C62.727 59.7913 63.1008 60.7639 63.9363 61.4574L65.2138 59.9186C64.9185 59.6735 64.727 59.3127 64.727 58.688H62.727ZM63.945 61.4646C64.6906 62.0695 65.5644 62.376 66.527 62.376V60.376C66.0177 60.376 65.5901 60.2238 65.2051 59.9114L63.945 61.4646ZM66.527 62.376C67.5229 62.376 68.404 62.0187 69.1148 61.3224L67.7153 59.8936C67.3807 60.2213 67.0031 60.376 66.527 60.376V62.376ZM69.1148 61.3224C69.8512 60.601 70.199 59.6715 70.199 58.624H68.199C68.199 59.1978 68.0242 59.591 67.7153 59.8936L69.1148 61.3224ZM70.199 58.624C70.199 57.538 69.8023 56.5936 68.9667 55.9128L67.7034 57.4632C68.0198 57.721 68.199 58.0673 68.199 58.624H70.199ZM68.9738 55.9186C68.2258 55.2976 67.3429 54.984 66.367 54.984V56.984C66.8845 56.984 67.3136 57.1397 67.6963 57.4574L68.9738 55.9186Z" fill="white"/>
</svg>
